inDegrees=no
num_controls=7
num_derivatives=13
num_iterations=146
num_multipliers=7
num_parameters=0
num_slacks=7
num_states=26
objective=0.448235
objective_accelerations=0.049213
objective_balance=0.007473
objective_effort=0.036544
objective_height=0.350063
objective_ligament=0.004942
solver_duration=2089.436195
status=Solve_Succeeded
success=true
DataType=double
version=3
OpenSimVersion=4.5
endheader
time	/jointset/ground_pelvis/pelvis_tilt/value	/jointset/ground_pelvis/pelvis_tx/value	/jointset/ground_pelvis/pelvis_ty/value	/jointset/hip_l/hip_flexion_l/value	/jointset/hip_l/hip_adduction_l/value	/jointset/hip_l/hip_rotation_l/value	/jointset/back/lumbar_extension/value	/jointset/patellofemoral_l/patellar_flexion_l/value	/jointset/knee_l/knee_flexion_l/value	/jointset/knee_l/knee_adduction_l/value	/jointset/knee_l/knee_rotation_l/value	/jointset/ankle_l/ankle_angle_l/value	/jointset/subtalar_l/subtalar_angle_l/value	/jointset/ground_pelvis/pelvis_tilt/speed	/jointset/ground_pelvis/pelvis_tx/speed	/jointset/ground_pelvis/pelvis_ty/speed	/jointset/hip_l/hip_flexion_l/speed	/jointset/hip_l/hip_adduction_l/speed	/jointset/hip_l/hip_rotation_l/speed	/jointset/back/lumbar_extension/speed	/jointset/patellofemoral_l/patellar_flexion_l/speed	/jointset/knee_l/knee_flexion_l/speed	/jointset/knee_l/knee_adduction_l/speed	/jointset/knee_l/knee_rotation_l/speed	/jointset/ankle_l/ankle_angle_l/speed	/jointset/subtalar_l/subtalar_angle_l/speed	/forceset/tau_hip_flexion_l	/forceset/tau_hip_adduction_l	/forceset/tau_hip_rotation_l	/forceset/tau_knee_flexion_l	/forceset/tau_ankle_angle_l	/forceset/tau_subtalar_angle_l	/forceset/tau_lumbar_extension	lambda_cid13_p0	lambda_cid13_p1	lambda_cid13_p2	lambda_cid13_p3	lambda_cid13_p4	lambda_cid13_p5	lambda_cid14_p0	/jointset/ground_pelvis/pelvis_tilt/accel	/jointset/ground_pelvis/pelvis_tx/accel	/jointset/ground_pelvis/pelvis_ty/accel	/jointset/hip_l/hip_flexion_l/accel	/jointset/hip_l/hip_adduction_l/accel	/jointset/hip_l/hip_rotation_l/accel	/jointset/back/lumbar_extension/accel	/jointset/patellofemoral_l/patellar_flexion_l/accel	/jointset/knee_l/knee_flexion_l/accel	/jointset/knee_l/knee_adduction_l/accel	/jointset/knee_l/knee_rotation_l/accel	/jointset/ankle_l/ankle_angle_l/accel	/jointset/subtalar_l/subtalar_angle_l/accel	gamma_cid13_p0	gamma_cid13_p1	gamma_cid13_p2	gamma_cid13_p3	gamma_cid13_p4	gamma_cid13_p5	gamma_cid14_p0
1.5	-0.450565570152884	-0.07562985967608976	0.7617208239458145	1.272700179654618	-0.3100903368481172	-0.04573975468608333	-0.3464555585562367	0.6907866687067943	0.6907866687068075	-0.1735499049070148	0.1745224715530937	0.03454548182244396	-0.04994259398639207	0.7357206265497455	0.2644714825765544	0.4914719426202107	-2.346924162465679	0.03189802069582916	-0.6109931188521175	0.5643648592304649	-1.750159335409916	-1.750159335409984	0.00541922926019835	-0.0003110806735492547	-0.2325400739548549	0.006666672667289006	-0.2536614522067011	0.01607886742538521	-0.02098302281449286	-0.1997015408794455	0.1396306019863474	0.04593077631185227	0.2280024048232231	5.899914366485457	-23.67326218370011	6.44722198960207	-5.451090613963404	-611.604225613928	-61.36959941770582	-28.20099887764968	0.6589641209334287	0.6945759794586555	-0.2840169514483486	-1.592503697888969	0.5894411148492801	-0.3092397864615929	1.808750468823645	-1.114165599764763	-1.114165599764749	0.03798583523243412	-0.02238679084445027	-0.1238085938530602	0.5712265969151554	2.619349066552918e-07	7.4176533774309e-07	-1.295879236878442e-06	-7.24253200537544e-08	3.418532991004401e-07	-5.081740002045712e-08	2.917109711378417e-07
1.51	-0.4431757648243904	-0.0729506130806172	0.7666204025682443	1.249153490381334	-0.3097428698281079	-0.05186485394523143	-0.3407228251841821	0.6732316328284926	0.6732316328286179	-0.1734956724797642	0.1745195742603534	0.03221406397634503	-0.0498484281837485	0.742140652326633	0.2713495949265048	0.4883462650008566	-2.362096355252296	0.03760072572064825	-0.6139183444109265	0.582112421188558	-1.760606894552228	-1.760606894552009	0.005399420101942103	-0.0002891003684902536	-0.2336942330028423	0.01217291703787629	-0.2456872927263516	0.01540613293023163	-0.02083687976039976	-0.1982467153195236	0.1394788122725724	0.04532271699355255	0.2218216934347265	6.091486958439441	-23.54673974282903	6.545860632344914	-5.403041454453439	-607.1357723625588	-61.66935007137159	-29.20788129881225	0.6185721560361919	0.680214521422098	-0.3414230640754196	-1.431954093552506	0.56140585076075	-0.2676950518129729	1.747349960515366	-0.9739506864503892	-0.9739506864073488	-0.02596353290701878	0.01153113890008066	-0.1038175470377616	0.5411659375074407	1.478363025650037e-07	9.95543028634055e-07	-7.553199400651537e-07	4.763668226483314e-08	2.734184827330808e-07	2.754586864936083e-08	2.360317977958636e-07
1.52	-0.4357247491681344	-0.07020342822991338	0.7714858084351014	1.225464603775283	-0.3093382316269579	-0.05801591168221215	-0.3348146980123039	0.6555793414357706	0.6555793414360112	-0.173442437992406	0.1745163049102079	0.02987258494241297	-0.04969903142132365	0.7479626921023127	0.2780591336228069	0.4846373915056416	-2.375363629019091	0.04333225692396853	-0.6161848144186319	0.5994436191951802	-1.769610438293979	-1.769610438293473	0.005219641281591338	-0.000385492154671038	-0.2345523115214767	0.0177128646235407	-0.2377131332460025	0.01473339843507773	-0.02069073670630323	-0.1967918897596022	0.1393270225587973	0.04471465767525258	0.2156409820462296	6.275544157445894	-23.4213449210648	6.647470282585569	-5.343764947591734	-602.7899925001404	-62.02632059955854	-30.197316897144	0.5393669206919128	0.6608612487289722	-0.4006561266205557	-1.211519893924569	0.5952063505495143	-0.177488676240834	1.725477678529431	-0.8253625196525849	-0.8253625196525826	0.005991902813529134	-0.04606120909240207	-0.06459248798243634	0.5779672399305795	8.265777698979117e-08	1.166948681817508e-06	-4.548030764263957e-07	1.173494306495761e-07	2.416651945522169e-07	8.094803543549512e-08	2.072280982814416e-07
1.53	-0.4282185312798025	-0.06739006128171035	0.7763112463613743	1.201652651192198	-0.3088761670526226	-0.06418687226595517	-0.3287355964186909	0.6378443933715362	0.6378443933717103	-0.1733914930720765	0.1745118940421155	0.02752404101284371	-0.04949408750134097	0.7531724412518145	0.2845779119424532	0.4803554916549167	-2.386689223182796	0.04908484041776807	-0.6179201516478126	0.616286580965306	-1.777120974433945	-1.777120974433556	0.004964195152475585	-0.0005002091864118698	-0.2351027883264945	0.02328216450098507	-0.2295160225890422	0.01382920642098971	-0.02059430910651773	-0.1954755353816701	0.1393914483935073	0.04396554558547375	0.2092369325386703	6.527978234690829	-23.24843596019678	6.743529689424395	-5.299372190130106	-598.3891238437434	-62.32744848368704	-31.16500225695046	0.4955276016901758	0.6419629618471487	-0.4561116780534996	-1.042410139503459	0.565794236791156	-0.1582685994416866	1.650187641937937	-0.6752105126378399	-0.6752105126552653	-0.04187683982196001	0.005433511040193397	-0.04220814991631983	0.5471891892329079	6.945683483684602e-08	1.250834044936729e-06	-4.093312980355731e-07	1.335660967296096e-07	2.488860300695039e-07	1.078290314702158e-07	2.069795897087977e-07
1.54	-0.4206634661620539	-0.06451259118265794	0.7810910343363889	1.177737576475094	-0.3083564746657502	-0.07037252869262695	-0.3224907687642401	0.6200420776756085	0.6200420776757148	-0.1733432154068474	0.1745062580959567	0.02517160574059329	-0.04923329501706755	0.7577321379857517	0.290879763792684	0.475507401253989	-2.395988055822902	0.05485781943140693	-0.6191239830043935	0.632588831362784	-1.783083964632678	-1.783083964632405	0.004686190261446671	-0.0006305077679480319	-0.2353305800577066	0.02888257748169124	-0.2213189119320823	0.01292501440690175	-0.02049788150673098	-0.1941591810037381	0.1394558742282173	0.04321643349569498	0.2028328830311108	6.772445076009229	-23.07631297299791	6.842205716803729	-5.238356478634377	-594.1148636767172	-62.68542224082825	-32.10664953816904	0.409356437578995	0.617475954845876	-0.5138942366611275	-0.8061675892048276	0.5992854545173777	-0.07118750172088734	1.617335403999894	-0.5158533314058794	-0.515853331405878	0.001480150430895238	-0.04917751905146297	-5.547322127111207e-05	0.5841898605829368	5.800603529738322e-08	1.327933761398242e-06	-3.775183519225287e-07	1.468723034361814e-07	2.572158953179384e-07	1.337954149514915e-07	2.076329500117732e-07
